<?xml version="1.0" encoding="iso-8859-1"?>
<!-- Uploaded to: SVG Repo, www.svgrepo.com, Generator: SVG Repo Mixer Tools -->
<svg height="800px" width="800px" version="1.1" id="Layer_1" xmlns="http://www.w3.org/2000/svg" xmlns:xlink="http://www.w3.org/1999/xlink" 
	 viewBox="0 0 503.32 503.32" xml:space="preserve">
<g>
	<path style="fill:#F0C419;" d="M425.22,377.489H26.034C11.655,377.489,0,365.834,0,351.455V73.76
		c0-14.379,11.655-26.034,26.034-26.034H425.22c14.379,0,26.034,11.655,26.034,26.034v277.695
		C451.254,365.834,439.6,377.489,425.22,377.489"/>
	<g>
		<polygon style="fill:#F29C21;" points="0.004,160.54 451.259,160.54 451.259,91.116 0.004,91.116 		"/>
		<polygon style="fill:#F29C21;" points="269.021,325.421 407.869,325.421 407.869,247.614 269.021,247.614 		"/>
		<path style="fill:#F29C21;" d="M104.136,221.286H34.712c-4.79,0-8.678-3.879-8.678-8.678s3.888-8.678,8.678-8.678h69.424
			c4.79,0,8.678,3.879,8.678,8.678S108.926,221.286,104.136,221.286"/>
		<path style="fill:#F29C21;" d="M208.271,221.286h-69.424c-4.79,0-8.678-3.879-8.678-8.678s3.888-8.678,8.678-8.678h69.424
			c4.79,0,8.678,3.879,8.678,8.678S213.061,221.286,208.271,221.286"/>
		<path style="fill:#F29C21;" d="M147.525,255.997H34.712c-4.79,0-8.678-3.879-8.678-8.678c0-4.799,3.888-8.678,8.678-8.678h112.814
			c4.79,0,8.678,3.879,8.678,8.678C156.203,252.118,152.316,255.997,147.525,255.997"/>
		<path style="fill:#F29C21;" d="M208.271,255.997h-26.034c-4.79,0-8.678-3.879-8.678-8.678c0-4.799,3.888-8.678,8.678-8.678h26.034
			c4.79,0,8.678,3.879,8.678,8.678C216.949,252.118,213.061,255.997,208.271,255.997"/>
	</g>
	<path style="fill:#B1DC85;" d="M480.069,125.255l-28.811-3.098v229.298c0,14.379-11.663,26.034-26.034,26.034H26.037
		c-0.26,0-0.495-0.069-0.746-0.078l-0.469,4.382c-1.536,14.301,8.808,27.136,23.101,28.672l400.696,44.978
		c14.293,1.536,27.136-8.808,28.672-23.101l25.878-278.424C504.705,139.626,494.361,126.791,480.069,125.255"/>
</g>
</svg>