<svg id="Frame" xmlns="http://www.w3.org/2000/svg" width="24" height="24" viewBox="0 0 24 24">
  <rect id="Frame_Frame_Background_" data-name="Frame [Frame Background]" width="24" height="24" fill="none"/>
  <path id="Vector" d="M7.28,10.34H3.71V7.57A5.072,5.072,0,0,0,5.92,4.26H0V0H10.36a12.639,12.639,0,0,1,.2,2.25,10.747,10.747,0,0,1-3.28,8.09Z" transform="translate(12 10)" fill="#4285f4"/>
  <path id="Vector-2" data-name="Vector" d="M0,2.84V0H3.66A6.567,6.567,0,0,0,9.82,4.53a6.552,6.552,0,0,0,3.71-1.06L17.1,6.24A10.5,10.5,0,0,1,9.82,8.9,10.99,10.99,0,0,1,0,2.84Z" transform="translate(2.18 14.1)" fill="#34a853"/>
  <path id="Vector-3" data-name="Vector" d="M4.03,7.64,1.18,9.86A10.889,10.889,0,0,1,1.18,0H4.84V2.84a6.592,6.592,0,0,0-.35,2.09,6.592,6.592,0,0,0,.35,2.09Z" transform="translate(1 7.07)" fill="#fbbc05"/>
  <path id="Vector-4" data-name="Vector" d="M3.66,8.91,0,6.07A10.981,10.981,0,0,1,9.82,0a10.553,10.553,0,0,1,7.36,2.87L14.03,6.02A6,6,0,0,0,9.82,4.38,6.567,6.567,0,0,0,3.66,8.91Z" transform="translate(2.18 1)" fill="#ea4335"/>
  <path id="Vector-5" data-name="Vector" d="M0,0H22V22H0Z" transform="translate(1 1)" fill="none"/>
</svg>
